<?xml version="1.0" encoding="UTF-8"?>
<svg id="Logo" xmlns="http://www.w3.org/2000/svg" viewBox="0 0 1011.41 1102.84">
  <path d="M51.56,133.64h-20.77v-47.62h20.77v-35.35c0-7.88.83-14.26,2.51-19.16,1.67-4.89,4.24-8.89,7.7-11.99,3.46-3.1,7.99-5.31,13.61-6.62,5.61-1.31,12.23-1.97,19.87-1.97h38.31v33.66h-17.9c-1.67,0-3.04.18-4.12.54-1.07.36-1.91.84-2.51,1.43-.6.6-1.07,1.49-1.43,2.69-.36,1.2-.54,22.19-.54,23.85v12.93h26.14v47.62h-26.14v410.87h-55.5V133.64Z"/>
  <path d="M143.5,86.48h55.5v15.75c1.67-3.34,3.94-6.2,6.8-8.59,2.86-2.38,6.03-4.41,9.49-6.09,3.46-1.67,7.22-2.98,11.28-3.94,4.06-.95,8.24-1.43,12.53-1.43,8.11,0,15.09,1.02,20.95,3.04,5.85,2.03,10.74,5.37,14.68,10.03,3.94,4.65,6.86,10.51,8.77,17.54,1.91,7.04,2.86,15.7,2.86,25.96v131.77h-52.99v-118.88c0-3.82-.3-7.1-.89-9.85-.6-2.74-1.61-5.13-3.04-7.16-1.43-2.03-3.22-3.34-5.37-3.94-2.15-.59-4.78-.9-7.88-.9s-5.79.3-8.06.9c-2.27.6-4.06,1.91-5.37,3.94-1.31,2.03-2.27,4.42-2.86,7.16-.6,2.75-.9,6.03-.9,9.85v392.79h-55.5V86.48Z"/>
  <path d="M327.36,546.89c-6.57-1.67-12.12-4.59-16.65-8.77-4.54-4.17-7.94-9.79-10.2-16.83-2.27-7.04-3.4-15.93-3.4-26.68v-150.74c0-8.59.41-15.75,1.25-21.48.83-5.73,2.56-11.04,5.19-15.93,2.62-4.89,6.14-9.54,10.56-13.96,4.41-4.41,10.2-9.37,17.37-14.86l38.67-31.87c4.53-4.06,8.24-7.46,11.1-10.2,2.86-2.74,5.07-5.67,6.62-8.77,1.55-3.1,2.62-6.5,3.22-10.2.59-3.7.9-8.41.9-14.14v-58.36c0-5.96-1.43-10.44-4.3-13.43-2.86-2.98-7.88-4.48-15.04-4.48s-12.12,1.61-15.58,4.83c-3.46,3.22-5.19,8.41-5.19,15.58v92.02h-54.42v-92.02c0-11.46,1.49-21.24,4.48-29.36,2.98-8.11,7.58-14.8,13.79-20.05,6.2-5.25,13.96-9.07,23.27-11.46,9.31-2.38,20.41-3.58,33.3-3.58s24.47,1.25,34.02,3.76c9.54,2.51,17.37,6.44,23.45,11.82,6.09,5.37,10.56,12.24,13.43,20.59,2.86,8.36,4.3,18.26,4.3,29.72v396.37h-54.78v-15.75c-3.82,6.93-9.49,12.12-17.01,15.58-7.52,3.46-16.29,5.19-26.32,5.19-8.12,0-15.46-.84-22.02-2.51ZM381.07,502.49c2.74-.95,4.89-2.38,6.44-4.3,1.55-1.91,2.69-4.48,3.4-7.7.72-3.22,1.07-7.22,1.07-11.99v-192.64l-25.42,21.48c-2.86,2.39-5.37,4.6-7.52,6.62-2.15,2.03-3.64,4.12-4.48,6.27-.84,2.15-1.38,4.48-1.61,6.98-.24,2.51-.36,5.43-.36,8.77v143.94c0,4.78.3,8.72.9,11.82.59,3.11,1.67,5.49,3.22,7.16,1.55,1.67,3.52,2.93,5.91,3.76,2.38.84,5.37,1.25,8.95,1.25s6.74-.48,9.49-1.43Z"/>
  <path d="M467.54,86.48h55.5v16.11c3.82-6.45,9.54-11.46,17.19-15.04,7.64-3.58,16.35-5.37,26.14-5.37,7.88,0,14.98,1.02,21.3,3.04,6.32,2.03,11.75,5.43,16.29,10.2,4.53,4.78,7.99,10.8,10.38,18.08,2.38,7.28,3.58,16.29,3.58,27.03v403.89h-55.5V154.16c0-4.53-.36-8.35-1.07-11.46-.72-3.1-1.91-5.55-3.58-7.34-1.67-1.79-3.7-3.16-6.09-4.12-2.39-.95-5.37-1.43-8.95-1.43s-6.62.42-9.13,1.25c-2.51.84-4.6,2.21-6.27,4.12-1.67,1.91-2.81,4.42-3.4,7.52-.6,3.11-.9,6.93-.9,11.46v390.28h-55.5V86.48Z"/>
  <path d="M679.3,545.51c-9.43-2.38-17.19-6.32-23.27-11.82-6.09-5.49-10.51-12.65-13.25-21.48-2.75-8.83-4.12-19.45-4.12-31.87V151.29c0-12.65,1.37-23.39,4.12-32.23,2.74-8.83,7.1-15.99,13.07-21.48,5.96-5.49,13.79-9.43,23.45-11.82,9.67-2.38,21.18-3.58,34.55-3.58s24.89,1.2,34.55,3.58c9.67,2.39,17.48,6.33,23.45,11.82,5.96,5.49,10.32,12.66,13.07,21.48,2.74,8.83,4.12,19.58,4.12,32.23v119.23h-55.5v-118.52c0-4.53-.36-8.35-1.07-11.46-.72-3.1-1.91-5.55-3.58-7.34-1.67-1.79-3.7-3.1-6.09-3.94-2.39-.83-5.37-1.25-8.95-1.25s-6.62.36-9.13,1.07c-2.51.72-4.6,2.03-6.27,3.94-1.67,1.91-2.81,4.42-3.4,7.52-.6,3.11-.9,6.93-.9,11.46v327.27c0,4.54.3,8.3.9,11.28.59,2.99,1.73,5.49,3.4,7.52,1.67,2.03,3.76,3.46,6.27,4.3,2.51.84,5.55,1.25,9.13,1.25s6.56-.41,8.95-1.25c2.38-.83,4.41-2.27,6.09-4.3,1.67-2.03,2.86-4.53,3.58-7.52.72-2.98,1.07-6.74,1.07-11.28v-118.88h55.5v119.95c0,12.17-1.43,22.74-4.3,31.69-2.86,8.95-7.28,16.11-13.25,21.48-5.97,5.37-13.73,9.31-23.27,11.82-9.55,2.51-21.13,3.76-34.73,3.76s-24.77-1.2-34.19-3.58Z"/>
  <path d="M849.74,545.82c-9.43-2.38-17.19-6.32-23.27-11.82-6.09-5.49-10.51-12.65-13.25-21.48-2.75-8.83-4.12-19.45-4.12-31.87V80.58c0-12.65,1.37-23.39,4.12-32.23,2.74-8.83,7.1-15.99,13.07-21.48,5.96-5.49,13.79-9.43,23.45-11.82,9.67-2.38,21.18-3.58,34.55-3.58s24.89,1.2,34.55,3.58c9.67,2.39,17.48,6.33,23.45,11.82,5.96,5.49,10.32,12.66,13.07,21.48,2.74,8.83,4.12,19.58,4.12,32.23v400.07c0,12.17-1.43,22.74-4.3,31.69-2.86,8.95-7.28,16.11-13.25,21.48-5.97,5.37-13.73,9.31-23.27,11.82-9.55,2.51-21.13,3.76-34.73,3.76s-24.77-1.2-34.19-3.58ZM893.24,502.67c2.38-.83,4.41-2.27,6.09-4.3,1.67-2.03,2.86-4.53,3.58-7.52.72-2.98,1.07-6.74,1.07-11.28V81.29c0-4.53-.36-8.35-1.07-11.46-.72-3.1-1.91-5.55-3.58-7.34-1.67-1.79-3.7-3.1-6.09-3.94-2.39-.83-5.37-1.25-8.95-1.25s-6.62.36-9.13,1.07c-2.51.72-4.6,2.03-6.27,3.94-1.67,1.91-2.81,4.42-3.4,7.52-.6,3.11-.9,6.93-.9,11.46v398.28c0,4.54.3,8.3.9,11.28.59,2.99,1.73,5.49,3.4,7.52,1.67,2.03,3.76,3.46,6.27,4.3,2.51.84,5.55,1.25,9.13,1.25s6.56-.41,8.95-1.25Z"/>
  <path d="M4.25,564.86h55.5v16.11c3.82-6.44,9.61-11.46,17.37-15.04,7.75-3.58,16.29-5.37,25.6-5.37,10.98,0,20.35,1.97,28.11,5.91,7.75,3.94,13.79,10.56,18.08,19.87,2.38-4.3,5.37-8.06,8.95-11.28,3.58-3.22,7.52-5.96,11.82-8.24,4.3-2.27,8.89-3.88,13.79-4.83,4.89-.95,9.72-1.43,14.5-1.43,8.11,0,15.34,1.02,21.66,3.04,6.32,2.03,11.75,5.43,16.29,10.2,4.53,4.78,7.99,10.8,10.38,18.08,2.38,7.28,3.58,16.29,3.58,27.03v403.89h-55.86v-390.28c0-4.53-.3-8.35-.9-11.46-.6-3.1-1.73-5.55-3.4-7.34-1.67-1.79-3.76-3.16-6.27-4.12-2.51-.95-5.32-1.43-8.41-1.43-3.82,0-6.98.42-9.49,1.25-2.51.84-4.6,2.21-6.27,4.12-1.67,1.91-2.86,4.42-3.58,7.52-.72,3.11-1.07,6.93-1.07,11.46v464.71h-55.86v-464.71c0-4.53-.3-8.35-.9-11.46-.6-3.1-1.73-5.55-3.4-7.34-1.67-1.79-3.7-3.16-6.09-4.12-2.39-.95-5.37-1.43-8.95-1.43s-6.62.42-9.13,1.25c-2.51.84-4.6,2.21-6.27,4.12-1.67,1.91-2.81,4.42-3.4,7.52-.6,3.11-.9,6.93-.9,11.46v464.71H4.25v-532.38Z"/>
  <path d="M300.9,1025.32c-6.57-1.67-12.12-4.59-16.65-8.77-4.54-4.17-7.94-9.79-10.2-16.83-2.27-7.04-3.4-15.93-3.4-26.68v-150.74c0-8.59.41-15.75,1.25-21.48.83-5.73,2.56-11.04,5.19-15.93,2.62-4.89,6.14-9.54,10.56-13.96,4.41-4.41,10.2-9.37,17.37-14.86l38.67-31.87c4.53-4.06,8.24-7.46,11.1-10.2,2.86-2.74,5.07-5.67,6.62-8.77,1.55-3.1,2.62-6.5,3.22-10.2.59-3.7.9-8.41.9-14.14v-58.36c0-5.96-1.43-10.44-4.3-13.43-2.86-2.98-7.88-4.48-15.04-4.48s-12.12,1.61-15.58,4.83c-3.46,3.22-5.19,8.41-5.19,15.58v92.02h-54.42v-92.02c0-11.46,1.49-21.24,4.48-29.36,2.98-8.11,7.58-14.8,13.79-20.05,6.2-5.25,13.96-9.07,23.27-11.46,9.31-2.38,20.41-3.58,33.3-3.58s24.47,1.25,34.02,3.76c9.54,2.51,17.37,6.44,23.45,11.82,6.09,5.37,10.56,12.24,13.43,20.59,2.86,8.36,4.3,18.26,4.3,29.72v396.37h-54.78v-15.75c-3.82,6.93-9.49,12.12-17.01,15.58-7.52,3.46-16.29,5.19-26.32,5.19-8.12,0-15.46-.84-22.02-2.51ZM354.61,980.92c2.74-.95,4.89-2.38,6.44-4.3,1.55-1.91,2.69-4.48,3.4-7.7.72-3.22,1.07-7.22,1.07-11.99v-192.64l-25.42,21.48c-2.86,2.39-5.37,4.6-7.52,6.62-2.15,2.03-3.64,4.12-4.48,6.27-.84,2.15-1.38,4.48-1.61,6.98-.24,2.51-.36,5.43-.36,8.77v143.94c0,4.78.3,8.72.9,11.82.59,3.11,1.67,5.49,3.22,7.16,1.55,1.67,3.52,2.93,5.91,3.76,2.38.84,5.37,1.25,8.95,1.25s6.74-.48,9.49-1.43Z"/>
  <path d="M441.08,564.86h55.5v16.11c3.82-6.44,9.54-11.46,17.19-15.04,7.64-3.58,16.35-5.37,26.14-5.37,7.88,0,14.98,1.02,21.3,3.04,6.32,2.03,11.75,5.43,16.29,10.2,4.53,4.78,7.99,10.8,10.38,18.08,2.38,7.28,3.58,16.29,3.58,27.03v403.89h-55.5v-390.28c0-4.53-.36-8.35-1.07-11.46-.72-3.1-1.91-5.55-3.58-7.34-1.67-1.79-3.7-3.16-6.09-4.12-2.39-.95-5.37-1.43-8.95-1.43s-6.62.42-9.13,1.25c-2.51.84-4.6,2.21-6.27,4.12-1.67,1.91-2.81,4.42-3.4,7.52-.6,3.11-.9,6.93-.9,11.46v390.28h-55.5v-457.96Z"/>
  <path d="M611.86,566.69h55.14v456.03h-55.14v-456.03Z"/>
  <path d="M716.95,1025.29c-6.57-1.67-12.12-4.59-16.65-8.77-4.54-4.17-7.94-9.79-10.2-16.83-2.27-7.04-3.4-15.93-3.4-26.68v-146.85c0-8.59.41-15.75,1.25-21.48.83-5.73,2.56-11.04,5.19-15.93,2.62-4.89,6.14-9.54,10.56-13.96,4.41-4.41,10.2-9.37,17.37-14.86l38.67-31.87c4.53-4.06,8.24-7.46,11.1-10.2,2.86-2.74,5.07-5.67,6.62-8.77,1.55-3.1,2.62-6.5,3.22-10.2.59-3.7.9-8.41.9-14.14v-58.36c0-5.96-1.43-10.44-4.3-13.43-2.86-2.98-7.88-4.48-15.04-4.48s-12.12,1.61-15.58,4.83c-3.46,3.22-5.19,8.41-5.19,15.58v92.02h-54.42v-92.02c0-11.46,1.49-21.24,4.48-29.36,2.98-8.11,7.58-14.8,13.79-20.05,6.2-5.25,13.96-9.07,23.27-11.46,9.31-2.38,20.41-3.58,33.3-3.58s24.47,1.25,34.02,3.76c9.54,2.51,17.37,6.44,23.45,11.82,6.09,5.37,10.56,12.24,13.43,20.59,2.86,8.36,4.3,18.26,4.3,29.72v392.47h-54.78v-15.75c-3.82,6.93-9.49,12.12-17.01,15.58-7.52,3.46-16.29,5.19-26.32,5.19-8.12,0-15.46-.84-22.02-2.51ZM770.66,980.89c2.74-.95,4.89-2.38,6.44-4.3,1.55-1.91,2.69-4.48,3.4-7.7.72-3.22,1.07-7.22,1.07-11.99v-188.74l-25.42,21.48c-2.86,2.39-5.37,4.6-7.52,6.62-2.15,2.03-3.64,4.12-4.48,6.27-.84,2.15-1.38,4.48-1.61,6.98-.24,2.51-.36,5.43-.36,8.77v140.04c0,4.78.3,8.72.9,11.82.59,3.11,1.67,5.49,3.22,7.16,1.55,1.67,3.52,2.93,5.91,3.76,2.38.84,5.37,1.25,8.95,1.25s6.74-.48,9.49-1.43Z"/>
  <path d="M895.62,1094.12c-9.67-2.74-17.31-7.1-22.92-13.07-5.61-5.96-9.79-13.43-12.53-22.38-2.75-8.95-4.12-19.51-4.12-31.69v-169.6h54.78v171.74c0,8.36,1.73,14.38,5.19,18.08,3.46,3.7,8.65,5.55,15.58,5.55s11.99-1.61,15.22-4.83c3.22-3.22,4.83-7.7,4.83-13.43v-162.08c0-4.3-.36-8.29-1.07-11.99-.72-3.7-1.97-7.52-3.76-11.46-1.79-3.94-4.24-8.06-7.34-12.35-3.11-4.3-7.16-8.83-12.17-13.61l-34.73-37.6c-6.45-5.96-11.7-11.82-15.75-17.54-4.06-5.73-7.7-11.75-10.92-18.08-3.22-6.32-5.49-13.07-6.8-20.23-1.31-7.16-1.97-15.4-1.97-24.71v-80.92c0-10.03,1.25-19.03,3.76-27.03,2.51-8,6.68-14.62,12.53-19.87,5.85-5.25,13.54-9.31,23.09-12.17,9.54-2.86,21.24-4.3,35.09-4.3s25.84,1.31,35.27,3.94c9.43,2.63,17.01,6.75,22.74,12.35,5.73,5.61,9.85,12.83,12.35,21.66,2.51,8.83,3.76,19.34,3.76,31.51v97.75h-54.07v-100.26c0-4.06-.36-7.4-1.07-10.03-.72-2.62-1.97-4.83-3.76-6.62s-3.88-3.1-6.27-3.94c-2.39-.83-5.25-1.25-8.59-1.25s-6.21.48-8.59,1.43c-2.39.96-4.36,2.21-5.91,3.76-1.56,1.56-2.75,3.28-3.58,5.19-.84,1.91-1.25,4.3-1.25,7.16v84.14c0,3.35.41,6.75,1.25,10.2.83,3.46,2.15,6.86,3.94,10.2,1.79,3.35,4.12,6.8,6.98,10.38,2.86,3.58,6.32,7.52,10.38,11.82l32.23,34.73c7.88,8.36,14.38,15.88,19.51,22.56,5.13,6.69,9.19,13.13,12.17,19.34,2.98,6.21,5.07,12.83,6.27,19.87,1.19,7.04,1.79,15.22,1.79,24.53v159.21c0,10.98-1.31,20.77-3.94,29.36-2.63,8.59-6.8,15.75-12.53,21.48-5.73,5.73-13.43,10.03-23.09,12.89-9.67,2.86-21.79,4.3-36.34,4.3s-25.96-1.38-35.63-4.12Z"/>
</svg>