<?xml version="1.0" encoding="UTF-8"?>
<svg id="Logo" xmlns="http://www.w3.org/2000/svg" version="1.1" viewBox="0 0 555.6 555.6">
  <!-- Generator: Adobe Illustrator 30.1.0, SVG Export Plug-In . SVG Version: 2.1.1 Build 136)  -->
  <path d="M137.7,204.8h31.8v-58h-31.8v-15.8c0-2.1.2-27.6.6-29.1.5-1.4,1-2.5,1.8-3.3.8-.7,1.7-1.3,3-1.8,1.3-.5,3-.6,5.1-.6h21.8v-40.9h-46.7c-9.3,0-17.4.8-24.2,2.4-6.9,1.6-12.3,4.3-16.5,8.1-4.2,3.7-7.4,8.7-9.4,14.6-2.1,6-3,13.8-3,23.4v43.1h-25.3v58h25.3v295.2h67.5V204.8Z"/>
  <path d="M279.4,229.2c0-5.5.4-10.1,1.1-14,.7-3.7,2.2-6.9,4.1-9.2,1.9-2.3,4.6-4,7.6-5.1,3-1,6.8-1.6,11.1-1.6s8,.6,10.9,1.7c2.9,1.2,5.4,2.9,7.5,5.1,2.1,2.2,3.4,5.2,4.1,8.9.7,3.7,1.1,8.4,1.1,14v271.1h68V229.2c0-5.5.5-10.1,1.3-14,.8-3.7,2.3-6.9,4.3-9.2,2.1-2.3,4.6-4,7.6-5.1,3-1,6.9-1.6,11.6-1.6s7.2.6,10.3,1.7c3,1.2,5.5,2.9,7.6,5.1,2.1,2.2,3.4,5.2,4.1,8.9.7,3.7,1.1,8.4,1.1,14v271.1h68V212.7c0-13-1.4-24-4.3-32.9h.1c-2.9-8.9-7.1-16.2-12.7-22.1-5.5-5.8-12.2-10-19.8-12.4-7.7-2.4-16.5-3.7-26.4-3.7s-11.7.6-17.6,1.8c-5.9,1.2-11.6,3.1-16.8,5.9-5.2,2.8-10,6.2-14.4,10-4.3,3.9-8,8.4-10.9,13.8-5.2-11.3-12.5-19.4-22.1-24.2-9.4-4.8-20.9-7.2-34.3-7.2s-21.7,2.2-31.1,6.5c-9.4,4.3-16.5,10.5-21.1,18.3v-19.5h-67.7v353.4h67.5V229.2Z"/>
</svg>